<svg xmlns="http://www.w3.org/2000/svg" version="1.0" width="5000" height="3280" preserveAspectRatio="xMidYMid meet"><rect id="backgroundrect" width="100%" height="100%" x="0" y="0" fill="none" stroke="none"/>




<g class="currentLayer"><title>Layer 1</title>
 
 
 
 
 
 
 
 
 
 
 
 
 
 
 
 
 
 
 
 
 
 
 
 
 
 
 
 
 
 
 
 
 
 
 
 
 
 
 
 
 
 
 
 
 
 
 
 
 <g class="" transform="rotate(0.9193205237388611 2500.0000000000587,2611.99999999999) " id="svg_1"><path d="M1007,3180 c-14,-9 -68,-181 -62,-197 c6,-16 83,-17 83,-2 c0,6 -9,18 -21,27 c-20,17 -18,59 2,46 c5,-3 9,0 9,6 c0,6 5,8 11,4 c7,-4 6,3 -2,17 c-24,43 -13,69 27,69 c35,0 30,27 -6,32 c-16,3 -34,1 -41,-2 z" id="svg_518" class=""/><path d="M483,3293 c-65,-10 -127,-28 -136,-40 c-6,-7 -15,-13 -20,-13 c-10,0 -52,-36 -124,-109 c-55,-54 -135,-191 -135,-229 c0,-12 -5,-33 -12,-49 c-18,-45 -29,-124 -32,-238 c-3,-122 55,-336 105,-386 c9,-9 24,-29 34,-45 c9,-16 35,-42 56,-59 c22,-16 52,-40 67,-51 c15,-12 47,-28 72,-35 c25,-7 50,-16 56,-20 c5,-5 215,-11 465,-13 c517,-6 1080,-15 1344,-22 c148,-4 261,-5 405,-4 c8,0 69,-2 135,-4 c277,-11 747,-20 1541,-31 c117,-1 216,-5 221,-8 c13,-8 116,24 173,53 c154,78 276,323 280,565 c1,83 -23,231 -46,277 c-8,15 -14,36 -14,47 c0,11 -6,26 -12,33 c-7,7 -14,20 -16,28 c-5,22 -53,94 -69,103 c-7,5 -11,12 -8,16 c2,5 -11,19 -30,32 c-19,13 -35,30 -35,37 c0,6 -6,12 -14,12 c-7,0 -25,11 -40,25 c-15,14 -33,25 -41,25 c-7,0 -20,6 -28,14 c-35,35 -124,45 -407,45 c-151,0 -390,2 -530,5 c-258,5 -876,12 -1755,21 c-722,8 -1324,16 -1380,18 c-27,2 -59,2 -70,0 zm2015,-68 c173,-2 426,-5 563,-6 c173,-1 247,-5 247,-13 c0,-6 4,-5 9,3 c6,9 15,11 27,6 c20,-8 103,-10 755,-19 c416,-6 434,-8 508,-50 c93,-52 139,-90 176,-142 c11,-15 27,-35 35,-44 c48,-49 98,-221 106,-365 c6,-99 4,-121 -21,-220 c-24,-99 -52,-169 -80,-202 c-58,-68 -130,-130 -175,-152 c-54,-26 -58,-26 -255,-25 c-110,1 -393,5 -630,9 c-236,5 -485,9 -552,9 c-66,1 -120,3 -118,6 c2,3 -153,6 -343,8 c-191,2 -419,5 -507,7 c-88,3 -513,7 -945,11 c-432,3 -792,8 -800,11 c-8,3 -22,7 -30,8 c-67,9 -108,19 -128,31 c-12,8 -22,13 -22,10 c0,-2 -17,13 -39,34 c-21,21 -45,42 -52,46 c-15,10 -101,136 -114,169 c-69,167 -55,465 27,587 c10,14 18,29 18,33 c0,16 69,105 120,153 c57,55 119,91 180,103 c31,7 1206,3 2040,-6 z" id="svg_517" class=""/><path d="M2285,2472 c-32,-35 -16,-82 28,-82 c35,0 61,35 49,68 c-12,34 -52,41 -77,14 z" id="svg_541" class=""/><path d="M4443,2640 c-19,-7 -20,-16 -20,-278 c0,-262 1,-271 20,-276 c11,-3 30,-6 43,-6 l22,0 l-2,276 c-3,266 -4,277 -23,284 c-11,4 -29,4 -40,0 z" id="svg_540" class=""/><path d="M1876,2680 c-15,-9 -17,-34 -18,-218 c0,-114 -3,-233 -6,-265 c-5,-54 -4,-58 20,-67 c14,-5 35,-6 47,-2 c20,8 20,14 20,277 c-1,206 -4,270 -13,277 c-17,10 -29,10 -50,-2 z" id="svg_539" class=""/><path d="M866,2692 c-20,-4 -23,-24 -8,-53 c9,-16 22,-19 78,-19 c94,0 97,-3 94,-102 c-3,-92 -15,-119 -62,-143 c-33,-17 -40,-44 -12,-46 c43,-3 60,5 98,47 c46,50 44,44 50,141 c4,48 11,76 21,85 c20,17 274,20 285,4 c4,-6 5,-22 1,-36 c-9,-41 -93,-167 -120,-181 c-22,-12 -27,-11 -40,6 c-8,11 -12,30 -10,43 c8,41 -53,74 -67,36 c-9,-24 12,-95 40,-131 c22,-28 31,-33 68,-33 c35,0 52,7 83,33 c22,17 48,46 58,62 c36,58 84,160 85,177 c0,23 33,31 111,26 c89,-4 90,-8 84,-226 c-2,-95 -7,-188 -11,-207 c-6,-32 -5,-34 30,-41 c21,-3 40,-3 44,1 c4,3 8,109 10,235 c3,203 1,232 -15,266 c-14,30 -25,40 -53,45 c-19,4 -179,8 -355,9 c-176,0 -354,2 -395,4 c-41,1 -83,1 -92,-2 z" id="svg_538" class=""/><path d="M3827,2678 c-50,-27 -59,-29 -129,-23 c-41,4 -83,6 -92,6 c-10,-1 -26,-1 -35,-2 c-10,0 -51,2 -91,6 c-57,5 -76,3 -87,-9 c-37,-37 -8,-66 66,-67 c30,0 66,-3 82,-5 c27,-6 27,-7 27,-80 c0,-90 -18,-137 -60,-159 c-20,-10 -30,-22 -28,-33 c9,-47 114,-7 144,55 c11,23 21,72 24,121 c4,47 11,87 18,91 c6,4 27,5 46,3 c40,-5 53,-27 62,-107 c12,-108 101,-176 209,-159 c70,10 75,19 68,124 c-8,121 3,139 84,138 c32,-1 65,-5 73,-9 c8,-4 22,-10 31,-12 c10,-3 19,-22 23,-48 c8,-50 9,-318 1,-363 c-7,-43 6,-58 51,-60 l39,-1 l-2,243 c-2,237 -2,243 -25,271 c-13,16 -34,34 -48,40 c-30,12 -215,12 -246,1 c-17,-7 -27,-3 -44,15 c-12,13 -42,30 -65,38 c-41,14 -44,14 -96,-15 zm121,-75 c19,-25 21,-38 18,-115 c-3,-98 -12,-115 -55,-101 c-38,13 -56,55 -56,130 c1,103 46,145 93,86 z" id="svg_537" class=""/><path d="M529,2696 c-7,-8 -11,-27 -9,-43 c3,-28 3,-28 82,-29 c54,-2 81,-6 87,-15 c12,-20 11,-102 -2,-155 c-10,-37 -18,-48 -51,-65 c-44,-22 -49,-52 -9,-57 c37,-6 90,29 118,76 c22,36 27,62 33,155 c4,61 6,117 3,124 c-3,8 -35,12 -99,12 c-52,0 -104,3 -117,6 c-15,4 -28,1 -36,-9 z" id="svg_536" class=""/><path d="M3153,2840 c-3,-5 4,-17 15,-27 c12,-10 31,-36 42,-58 c18,-34 21,-58 21,-190 c0,-82 -3,-171 -7,-196 l-8,-47 l36,-12 c66,-21 66,-20 65,172 c-2,217 -13,266 -75,326 c-43,40 -76,53 -89,32 z" id="svg_535" class=""/><path d="M3008,2835 c-22,-23 -22,-25 -6,-50 c19,-28 42,-32 73,-10 c15,10 20,22 16,37 c-13,53 -46,63 -83,23 z" id="svg_534" class=""/><path d="M2705,2846 c-3,-7 8,-30 25,-50 c16,-20 31,-42 32,-49 c2,-6 7,-21 11,-31 c10,-24 -17,-46 -58,-46 c-36,0 -79,-30 -107,-75 c-39,-63 -26,-186 27,-252 c27,-34 114,-61 168,-53 c25,4 48,10 52,13 c3,4 5,65 4,136 c-3,155 2,163 82,155 c89,-9 95,-12 102,-45 c4,-17 4,-75 1,-130 l-7,-98 l33,-9 c59,-16 62,-9 60,136 c-1,72 -6,142 -12,156 c-17,45 -65,66 -152,66 c-42,0 -83,3 -92,6 c-9,3 -21,25 -27,47 c-13,49 -38,82 -84,114 c-39,27 -51,28 -58,9 zm69,-361 c2,-120 -2,-135 -31,-135 c-58,0 -98,143 -59,209 c19,33 38,41 69,31 c18,-7 20,-17 21,-105 z" id="svg_533" class=""/><path d="M2243,2856 c-38,-18 -81,-59 -99,-95 c-18,-34 -36,-175 -33,-256 c2,-53 4,-60 24,-63 c12,-2 31,1 41,7 c17,9 20,23 21,113 c1,116 28,213 62,223 c10,4 19,11 19,16 c0,18 72,9 102,-12 c55,-40 70,-96 68,-249 c-1,-74 -2,-153 -3,-174 c-2,-35 1,-40 26,-49 c58,-19 59,-16 54,195 c-4,189 -5,194 -32,246 c-41,76 -80,103 -157,108 c-42,3 -73,0 -93,-10 z" id="svg_532" class=""/><path d="M1331,2873 c-27,-5 -34,-23 -24,-60 c5,-20 14,-29 34,-31 c46,-6 71,64 33,90 c-6,4 -13,7 -16,6 c-3,0 -15,-3 -27,-5 z" id="svg_531" class=""/><path d="M3178,2995 c-7,-9 -8,-15 -2,-15 c5,0 12,7 16,15 c3,8 4,15 2,15 c-2,0 -9,-7 -16,-15 z" id="svg_530" class=""/><path d="M4230,3120 c-16,-27 -17,-49 0,-32 c7,7 22,12 35,12 c33,0 31,-36 -3,-44 c-39,-10 -84,-60 -77,-88 c3,-13 10,-29 16,-35 c15,-20 55,-15 67,6 c15,28 13,32 -14,25 c-13,-3 -27,-1 -31,6 c-8,12 13,42 25,35 c4,-2 24,11 44,30 c29,27 37,40 34,62 c-4,34 -14,43 -53,43 c-19,0 -35,-7 -43,-20 z" id="svg_529" class=""/><path d="M3855,3106 c-9,-21 -17,-47 -17,-58 c0,-10 -7,-34 -15,-54 c-19,-45 -11,-66 24,-60 c14,2 33,5 43,5 c17,1 38,48 38,88 c0,13 10,42 22,63 c13,21 19,42 16,46 c-12,12 -35,-14 -42,-47 c-9,-46 -39,-35 -46,16 l-6,40 l-17,-39 zm37,-72 c25,-10 18,-74 -9,-74 c-25,0 -39,29 -27,55 c13,27 13,28 36,19 z" id="svg_528" class=""/><path d="M3182,3098 c-10,-24 -21,-47 -23,-52 c-2,-5 4,-6 13,-3 c9,4 14,3 11,-2 c-3,-5 -1,-12 5,-16 c5,-3 12,7 15,22 c4,15 10,36 16,45 c13,25 11,48 -4,48 c-7,0 -22,-19 -33,-42 z" id="svg_527" class=""/><path d="M3128,3125 c-6,-8 -9,-18 -6,-23 c3,-4 -6,-31 -19,-58 c-14,-27 -25,-57 -25,-66 c0,-28 25,-21 53,15 c19,25 23,37 15,51 c-5,10 -8,35 -6,57 c4,45 4,44 -12,24 z" id="svg_526" class=""/><path d="M2468,3113 c0,-34 15,-60 24,-44 c10,16 26,13 20,-4 c-3,-8 -9,-14 -12,-13 c-21,2 -30,-5 -35,-29 c-5,-28 0,-53 12,-53 c5,0 19,21 32,48 c13,26 30,58 38,71 c9,13 16,30 17,38 c3,15 -12,18 -21,3 c-3,-5 -15,-10 -26,-10 c-10,0 -19,5 -19,10 c0,6 -7,10 -15,10 c-10,0 -15,-10 -15,-27 z" id="svg_525" class=""/><path d="M3508,3140 c-8,-5 -60,-166 -60,-187 c0,-9 63,-12 77,-4 c17,10 16,11 -4,17 c-32,9 -36,32 -8,60 c13,13 20,24 16,24 c-5,0 -11,9 -14,20 c-6,24 18,51 38,44 c8,-3 22,1 30,10 c9,9 15,16 13,17 c-19,5 -79,5 -88,-1 z" id="svg_524" class=""/><path d="M2835,3139 c-42,-146 -49,-179 -39,-179 c5,0 22,38 37,85 c22,64 26,88 17,97 c-9,9 -12,8 -15,-3 z" id="svg_523" class=""/><path d="M2101,3123 c-25,-70 -43,-132 -43,-144 c0,-10 13,-14 39,-14 c46,0 81,32 81,76 c0,15 8,41 17,58 c10,16 14,33 9,38 c-5,4 -11,2 -14,-6 c-8,-22 -42,-52 -52,-46 c-6,4 -10,19 -10,36 c0,37 -15,38 -27,2 zm57,-92 c-1,-14 -17,-29 -35,-33 c-27,-4 -34,38 -8,57 c15,12 20,12 31,-2 c6,-9 12,-19 12,-22 z" id="svg_522" class=""/><path d="M1774,3113 c-9,-26 -16,-56 -16,-69 c0,-12 -11,-29 -25,-38 c-37,-24 -31,-36 20,-36 c46,0 55,9 32,32 c-10,9 -12,21 -5,48 c5,19 10,41 10,48 c1,6 5,12 10,12 c4,0 8,11 8,25 c0,40 -17,29 -34,-22 z" id="svg_521" class=""/><path d="M1358,3133 c-14,-27 -28,-49 -32,-51 c-5,-2 -8,-11 -8,-21 c0,-9 -7,-26 -15,-38 c-10,-14 -11,-24 -5,-28 c5,-3 15,5 22,19 c17,38 46,35 40,-4 c-6,-41 14,-38 35,5 c21,44 50,44 45,1 c-2,-17 0,-26 6,-22 c6,3 13,30 17,59 c4,28 8,64 11,79 c2,15 0,29 -5,32 c-10,7 -41,-37 -41,-58 c0,-7 -7,-16 -15,-20 c-12,-4 -15,4 -15,44 c0,28 -3,50 -8,50 c-4,0 -19,-21 -32,-47 z" id="svg_520" class=""/><path d="M608,3145 c-12,-19 -22,-45 -22,-57 c-1,-13 -5,-27 -9,-33 c-4,-5 -10,-27 -14,-47 c-10,-51 11,-51 45,0 c14,20 29,40 35,44 c18,14 27,8 21,-12 c-3,-11 -9,-29 -12,-40 c-4,-14 -2,-20 9,-20 c9,0 18,13 22,33 c4,17 11,37 15,42 c11,15 35,114 28,120 c-11,11 -36,-7 -54,-41 c-10,-19 -22,-34 -25,-34 c-12,0 -19,31 -13,56 c9,34 -1,30 -26,-11 z" id="svg_519" class=""/></g><g class="" stroke="#e76767" stroke-opacity="1"><path d="M2718,723 c-11,-2 -29,-6 -41,-8 c-11,-3 -39,-31 -61,-62 c-37,-52 -40,-63 -36,-107 c2,-27 10,-60 18,-75 c17,-31 51,-71 60,-71 c3,0 27,-10 53,-22 c98,-45 275,-14 336,59 c14,16 23,33 19,36 c-3,4 0,13 7,21 c19,24 14,81 -10,123 c-31,55 -81,92 -141,103 c-51,10 -165,12 -204,3 z" id="svg_545" class="" stroke="#e76767" stroke-opacity="1"/><path d="M2620,1565 c-122,-87 -137,-178 -45,-276 c60,-63 79,-69 214,-66 c113,2 116,3 138,30 c12,15 26,27 31,27 c15,1 60,78 60,103 c1,42 -17,91 -41,110 c-13,10 -24,25 -24,33 c0,7 -12,17 -27,20 c-16,4 -42,18 -59,31 c-27,20 -42,23 -115,22 c-79,0 -87,-2 -132,-34 z" id="svg_544" class="" stroke="#e76767" stroke-opacity="1"/><path d="M1523,1841 c0,-6 13,-11 29,-11 c35,0 91,-19 109,-37 c7,-7 22,-13 32,-13 c22,0 70,-20 70,-30 c0,-3 17,-12 38,-19 c20,-7 46,-16 57,-21 c11,-5 32,-14 48,-20 c15,-5 27,-16 27,-25 c0,-8 12,-18 28,-21 c41,-10 104,-46 125,-71 c10,-13 25,-23 32,-23 c8,0 20,-8 27,-18 c7,-11 24,-25 37,-31 c29,-16 151,-138 151,-152 c0,-5 9,-19 19,-30 c21,-23 41,-91 41,-141 c0,-45 -46,-88 -107,-99 c-81,-15 -282,5 -328,32 c-36,23 -61,24 -68,5 c-4,-9 5,-19 24,-26 c16,-7 29,-15 29,-19 c0,-4 17,-15 38,-26 c20,-11 43,-26 50,-32 c7,-7 22,-13 32,-13 c10,0 42,-13 72,-28 c29,-16 85,-36 123,-46 c39,-10 87,-22 108,-27 c61,-16 245,-13 307,5 c92,26 132,43 142,60 c5,9 17,16 26,16 c9,0 26,7 36,15 c11,8 28,15 39,15 c27,0 77,-32 77,-49 c0,-7 7,-19 16,-25 c17,-13 33,-66 49,-167 c5,-34 8,-37 60,-49 c32,-8 55,-19 55,-26 c0,-8 11,-16 25,-20 c14,-3 25,-12 25,-20 c0,-8 4,-14 9,-14 c27,0 145,-128 185,-200 l20,-35 l-32,32 c-18,17 -32,34 -32,37 c0,8 -103,107 -136,131 c-15,11 -39,30 -52,43 c-14,12 -29,22 -33,22 c-5,0 -16,8 -26,19 c-24,24 -74,34 -65,13 c6,-16 42,-51 76,-75 c16,-12 17,-17 6,-36 c-6,-13 -11,-59 -11,-106 l1,-84 l-34,-7 c-35,-6 -50,-15 -114,-69 l-35,-30 l-126,3 c-155,3 -181,8 -181,32 c0,10 -15,30 -32,44 c-18,14 -40,31 -48,38 c-9,7 -28,21 -43,31 c-28,18 -35,45 -16,64 c6,6 11,42 10,82 c-1,85 11,108 62,122 c20,5 50,22 67,37 c16,15 36,33 44,40 c18,14 82,16 91,2 c3,-6 50,-10 105,-10 c74,0 102,-4 113,-15 c13,-13 16,-13 21,0 c7,18 -4,105 -13,105 c-3,0 -19,25 -36,55 c-26,49 -33,55 -62,55 c-22,0 -33,-5 -33,-14 c0,-13 -42,-37 -145,-81 c-60,-27 -143,-38 -224,-31 c-47,4 -82,3 -86,-3 c-3,-5 7,-21 22,-35 c15,-14 26,-26 23,-27 c-3,0 -25,-2 -50,-5 c-133,-12 -150,-16 -150,-29 c0,-8 -9,-19 -21,-25 c-26,-14 -49,-68 -49,-113 c0,-19 -7,-40 -15,-47 c-26,-22 1,-41 54,-39 c87,3 111,0 111,-16 c0,-8 -4,-15 -10,-15 c-18,0 -75,-71 -81,-102 c-10,-45 1,-71 59,-133 c28,-31 52,-63 52,-71 c0,-21 30,-17 56,9 c54,52 63,59 81,55 c13,-2 20,-15 24,-43 c12,-91 60,-132 166,-141 c32,-3 75,-15 96,-26 c54,-28 62,-22 62,53 c0,58 2,64 22,67 c12,2 30,-6 41,-18 c37,-40 88,-60 152,-60 c33,0 60,4 60,9 c0,5 13,11 29,14 c16,3 41,18 56,32 c16,14 36,25 46,25 c24,0 49,10 49,21 c0,4 -25,25 -55,45 c-79,52 -72,68 29,71 c73,2 80,4 112,35 c19,18 34,38 34,45 c0,6 8,9 19,6 c10,-3 22,0 25,6 c10,15 -44,182 -100,308 c-42,97 -112,226 -125,231 c-5,2 -9,12 -9,22 c0,11 -9,24 -19,30 c-11,5 -29,27 -42,47 c-13,21 -29,42 -36,46 c-7,4 -13,14 -13,21 c0,8 -11,21 -24,30 c-14,8 -27,25 -31,36 c-3,11 -11,20 -16,20 c-5,0 -18,9 -29,20 c-26,26 -56,25 -105,-2 c-34,-18 -58,-21 -150,-22 c-95,-1 -117,2 -157,22 c-26,12 -52,22 -57,22 c-5,0 -12,9 -16,19 c-3,11 -12,22 -20,25 c-8,3 -15,12 -15,21 c0,8 -4,15 -9,15 c-30,0 -40,172 -12,190 c7,4 18,18 25,32 c11,21 10,28 -5,46 c-9,12 -26,22 -36,22 c-10,0 -28,6 -39,14 c-11,8 -37,17 -57,21 c-20,4 -48,16 -62,27 c-21,16 -66,32 -146,52 c-9,3 -25,9 -35,14 c-31,16 -157,52 -182,52 c-12,0 -39,7 -60,15 c-41,18 -56,20 -192,34 c-52,6 -112,13 -132,17 c-26,4 -38,3 -38,-5 zm1434,-947 c9,-3 13,-10 10,-15 c-8,-14 -31,-11 -38,6 c-6,16 3,19 28,9 zm-561,-239 c1,-5 -6,-11 -15,-13 c-11,-2 -18,3 -18,13 c0,17 30,18 33,0 zm887,-223 c0,-5 -7,-9 -15,-9 c-8,0 -15,4 -15,9 c0,4 7,8 15,8 c8,0 15,-4 15,-8 zm-863,-49 c-4,-3 -7,0 -7,7 c0,7 3,10 7,7 c3,-4 3,-10 0,-14 zm640,-159 c-3,-3 -12,-4 -19,-1 c-8,3 -5,6 6,6 c11,1 17,-2 13,-5 zm-359,-35 c-16,-10 -33,5 -23,21 c5,8 11,8 21,-1 c12,-10 12,-14 2,-20 z" id="svg_543" class="" stroke="#e76767" stroke-opacity="1"/></g></g></svg>