<svg xmlns="http://www.w3.org/2000/svg" version="1.0" width="1954" height="1830" preserveAspectRatio="xMidYMid meet"><rect id="backgroundrect" width="100%" height="100%" x="0" y="0" fill="none" stroke="none"/>




<g class="currentLayer"><title>Layer 1</title>
 
 
 
 
 
 
 
 
 
 
 
 
 
 
 
 
 
 
 
 
 
 
 
 
 
 
 
 
 
 
 
 
 
 
 
 
 
 
 
 
 
 
 
 
 
 
 
 
 <g class="" stroke="#e76767" stroke-opacity="1" id="svg_1" fill="#8ec449" fill-opacity="0.7"><path d="M1195,703 c-11,-2 -29,-6 -41,-8 c-11,-3 -39,-31 -61,-62 c-37,-52 -40,-63 -36,-107 c2,-27 10,-60 18,-75 c17,-31 51,-71 60,-71 c3,0 27,-10 53,-22 c98,-45 275,-14 336,59 c14,16 23,33 19,36 c-3,4 0,13 7,21 c19,24 14,81 -10,123 c-31,55 -81,92 -141,103 c-51,10 -165,12 -204,3 z" id="svg_545" class="" stroke="#e76767" stroke-opacity="1" fill="#8ec449" fill-opacity="1"/><path d="M1097,1545 c-122,-87 -137,-178 -45,-276 c60,-63 79,-69 214,-66 c113,2 116,3 138,30 c12,15 26,27 31,27 c15,1 60,78 60,103 c1,42 -17,91 -41,110 c-13,10 -24,25 -24,33 c0,7 -12,17 -27,20 c-16,4 -42,18 -59,31 c-27,20 -42,23 -115,22 c-79,0 -87,-2 -132,-34 z" id="svg_544" class="" stroke="#e76767" stroke-opacity="1" fill="#8ec449" fill-opacity="1"/><path d="M0,1821 c0,-6 13,-11 29,-11 c35,0 91,-19 109,-37 c7,-7 22,-13 32,-13 c22,0 70,-20 70,-30 c0,-3 17,-12 38,-19 c20,-7 46,-16 57,-21 c11,-5 32,-14 48,-20 c15,-5 27,-16 27,-25 c0,-8 12,-18 28,-21 c41,-10 104,-46 125,-71 c10,-13 25,-23 32,-23 c8,0 20,-8 27,-18 c7,-11 24,-25 37,-31 c29,-16 151,-138 151,-152 c0,-5 9,-19 19,-30 c21,-23 41,-91 41,-141 c0,-45 -46,-88 -107,-99 c-81,-15 -282,5 -328,32 c-36,23 -61,24 -68,5 c-4,-9 5,-19 24,-26 c16,-7 29,-15 29,-19 c0,-4 17,-15 38,-26 c20,-11 43,-26 50,-32 c7,-7 22,-13 32,-13 c10,0 42,-13 72,-28 c29,-16 85,-36 123,-46 c39,-10 87,-22 108,-27 c61,-16 245,-13 307,5 c92,26 132,43 142,60 c5,9 17,16 26,16 c9,0 26,7 36,15 c11,8 28,15 39,15 c27,0 77,-32 77,-49 c0,-7 7,-19 16,-25 c17,-13 33,-66 49,-167 c5,-34 8,-37 60,-49 c32,-8 55,-19 55,-26 c0,-8 11,-16 25,-20 c14,-3 25,-12 25,-20 c0,-8 4,-14 9,-14 c27,0 145,-128 185,-200 l20,-35 l-32,32 c-18,17 -32,34 -32,37 c0,8 -103,107 -136,131 c-15,11 -39,30 -52,43 c-14,12 -29,22 -33,22 c-5,0 -16,8 -26,19 c-24,24 -74,34 -65,13 c6,-16 42,-51 76,-75 c16,-12 17,-17 6,-36 c-6,-13 -11,-59 -11,-106 l1,-84 l-34,-7 c-35,-6 -50,-15 -114,-69 l-35,-30 l-126,3 c-155,3 -181,8 -181,32 c0,10 -15,30 -32,44 c-18,14 -40,31 -48,38 c-9,7 -28,21 -43,31 c-28,18 -35,45 -16,64 c6,6 11,42 10,82 c-1,85 11,108 62,122 c20,5 50,22 67,37 c16,15 36,33 44,40 c18,14 82,16 91,2 c3,-6 50,-10 105,-10 c74,0 102,-4 113,-15 c13,-13 16,-13 21,0 c7,18 -4,105 -13,105 c-3,0 -19,25 -36,55 c-26,49 -33,55 -62,55 c-22,0 -33,-5 -33,-14 c0,-13 -42,-37 -145,-81 c-60,-27 -143,-38 -224,-31 c-47,4 -82,3 -86,-3 c-3,-5 7,-21 22,-35 c15,-14 26,-26 23,-27 c-3,0 -25,-2 -50,-5 c-133,-12 -150,-16 -150,-29 c0,-8 -9,-19 -21,-25 c-26,-14 -49,-68 -49,-113 c0,-19 -7,-40 -15,-47 c-26,-22 1,-41 54,-39 c87,3 111,0 111,-16 c0,-8 -4,-15 -10,-15 c-18,0 -75,-71 -81,-102 c-10,-45 1,-71 59,-133 c28,-31 52,-63 52,-71 c0,-21 30,-17 56,9 c54,52 63,59 81,55 c13,-2 20,-15 24,-43 c12,-91 60,-132 166,-141 c32,-3 75,-15 96,-26 c54,-28 62,-22 62,53 c0,58 2,64 22,67 c12,2 30,-6 41,-18 c37,-40 88,-60 152,-60 c33,0 60,4 60,9 c0,5 13,11 29,14 c16,3 41,18 56,32 c16,14 36,25 46,25 c24,0 49,10 49,21 c0,4 -25,25 -55,45 c-79,52 -72,68 29,71 c73,2 80,4 112,35 c19,18 34,38 34,45 c0,6 8,9 19,6 c10,-3 22,0 25,6 c10,15 -44,182 -100,308 c-42,97 -112,226 -125,231 c-5,2 -9,12 -9,22 c0,11 -9,24 -19,30 c-11,5 -29,27 -42,47 c-13,21 -29,42 -36,46 c-7,4 -13,14 -13,21 c0,8 -11,21 -24,30 c-14,8 -27,25 -31,36 c-3,11 -11,20 -16,20 c-5,0 -18,9 -29,20 c-26,26 -56,25 -105,-2 c-34,-18 -58,-21 -150,-22 c-95,-1 -117,2 -157,22 c-26,12 -52,22 -57,22 c-5,0 -12,9 -16,19 c-3,11 -12,22 -20,25 c-8,3 -15,12 -15,21 c0,8 -4,15 -9,15 c-30,0 -40,172 -12,190 c7,4 18,18 25,32 c11,21 10,28 -5,46 c-9,12 -26,22 -36,22 c-10,0 -28,6 -39,14 c-11,8 -37,17 -57,21 c-20,4 -48,16 -62,27 c-21,16 -66,32 -146,52 c-9,3 -25,9 -35,14 c-31,16 -157,52 -182,52 c-12,0 -39,7 -60,15 c-41,18 -56,20 -192,34 c-52,6 -112,13 -132,17 c-26,4 -38,3 -38,-5 zm1434,-947 c9,-3 13,-10 10,-15 c-8,-14 -31,-11 -38,6 c-6,16 3,19 28,9 zm-561,-239 c1,-5 -6,-11 -15,-13 c-11,-2 -18,3 -18,13 c0,17 30,18 33,0 zm887,-223 c0,-5 -7,-9 -15,-9 c-8,0 -15,4 -15,9 c0,4 7,8 15,8 c8,0 15,-4 15,-8 zm-863,-49 c-4,-3 -7,0 -7,7 c0,7 3,10 7,7 c3,-4 3,-10 0,-14 zm640,-159 c-3,-3 -12,-4 -19,-1 c-8,3 -5,6 6,6 c11,1 17,-2 13,-5 zm-359,-35 c-16,-10 -33,5 -23,21 c5,8 11,8 21,-1 c12,-10 12,-14 2,-20 z" id="svg_543" class="" stroke="#e76767" stroke-opacity="1" fill="#8ec449" fill-opacity="1"/></g></g></svg>